<svg id="Line" height="512" viewBox="0 0 64 64" width="512" xmlns="http://www.w3.org/2000/svg"><path d="m38 13a25 25 0 1 0 25 25 25.028 25.028 0 0 0 -25-25zm10.786 16.114-8 20a3 3 0 0 1 -5.282.55l-8-12a3 3 0 0 1 4.996-3.328l4.837 7.255 5.881-14.705a3 3 0 1 1 5.572 2.228z" fill="#fca2e4"/><g fill="#151a6a"><path d="m23.2 25.407-5.6 7.593h-13.6a3 3 0 0 0 -3 3v12a3 3 0 0 0 3 3h12a3 3 0 0 0 3-3v-7a1 1 0 0 0 -2 0v7a1 1 0 0 1 -1 1h-12a1 1 0 0 1 -1-1v-12a1 1 0 0 1 1-1h12.126l-6.02 8.17-3.238-5.67a1 1 0 0 0 -1.736.992l4 7a1 1 0 0 0 1.673.1l14-19a1 1 0 1 0 -1.61-1.186z"/><path d="m23.2 1.407-5.6 7.593h-13.6a3 3 0 0 0 -3 3v12a3 3 0 0 0 3 3h12a3 3 0 0 0 3-3v-7a1 1 0 0 0 -2 0v7a1 1 0 0 1 -1 1h-12a1 1 0 0 1 -1-1v-12a1 1 0 0 1 1-1h12.126l-6.02 8.171-3.238-5.671a1 1 0 1 0 -1.736.992l4 7a1 1 0 0 0 1.673.1l14-19a1 1 0 1 0 -1.605-1.185z"/><path d="m48 12h-20a3 3 0 0 0 -3 3v6a3 3 0 0 0 3 3h20a3 3 0 0 0 3-3v-6a3 3 0 0 0 -3-3zm1 9a1 1 0 0 1 -1 1h-20a1 1 0 0 1 -1-1v-6a1 1 0 0 1 1-1h20a1 1 0 0 1 1 1z"/><path d="m48 36h-19a3 3 0 0 0 -3 3v6a3 3 0 0 0 3 3h19a3 3 0 0 0 3-3v-6a3 3 0 0 0 -3-3zm1 9a1 1 0 0 1 -1 1h-19a1 1 0 0 1 -1-1v-6a1 1 0 0 1 1-1h19a1 1 0 0 1 1 1z"/></g></svg>